<svg width="226" height="39" viewBox="0 0 226 39" fill="none" xmlns="http://www.w3.org/2000/svg">
<path d="M10.2727 31H2.02273V7.72727H10.3409C12.6818 7.72727 14.697 8.19318 16.3864 9.125C18.0758 10.0492 19.375 11.3788 20.2841 13.1136C21.2008 14.8485 21.6591 16.9242 21.6591 19.3409C21.6591 21.7652 21.2008 23.8485 20.2841 25.5909C19.375 27.3333 18.0682 28.6705 16.3636 29.6023C14.6667 30.5341 12.6364 31 10.2727 31ZM6.94318 26.7841H10.0682C11.5227 26.7841 12.7462 26.5265 13.7386 26.0114C14.7386 25.4886 15.4886 24.6818 15.9886 23.5909C16.4962 22.4924 16.75 21.0758 16.75 19.3409C16.75 17.6212 16.4962 16.2159 15.9886 15.125C15.4886 14.0341 14.7424 13.2311 13.75 12.7159C12.7576 12.2008 11.5341 11.9432 10.0795 11.9432H6.94318V26.7841ZM40.7358 15.25C40.5767 14.697 40.3532 14.2083 40.0653 13.7841C39.7775 13.3523 39.4252 12.9886 39.0085 12.6932C38.5994 12.3902 38.1297 12.1591 37.5994 12C37.0767 11.8409 36.4972 11.7614 35.8608 11.7614C34.6714 11.7614 33.6259 12.0568 32.7244 12.6477C31.8305 13.2386 31.1335 14.0985 30.6335 15.2273C30.1335 16.3485 29.8835 17.7197 29.8835 19.3409C29.8835 20.9621 30.1297 22.3409 30.6222 23.4773C31.1146 24.6136 31.8116 25.4811 32.7131 26.0795C33.6146 26.6705 34.679 26.9659 35.9062 26.9659C37.0199 26.9659 37.9706 26.7689 38.7585 26.375C39.554 25.9735 40.16 25.4091 40.5767 24.6818C41.0009 23.9545 41.2131 23.0947 41.2131 22.1023L42.2131 22.25H36.2131V18.5455H45.9517V21.4773C45.9517 23.5227 45.5199 25.2803 44.6562 26.75C43.7926 28.2121 42.6032 29.3409 41.0881 30.1364C39.5729 30.9242 37.8381 31.3182 35.8835 31.3182C33.7017 31.3182 31.785 30.8371 30.1335 29.875C28.482 28.9053 27.1941 27.5303 26.2699 25.75C25.3532 23.9621 24.8949 21.8409 24.8949 19.3864C24.8949 17.5 25.1676 15.8182 25.7131 14.3409C26.2661 12.8561 27.0388 11.5985 28.0312 10.5682C29.0237 9.53788 30.179 8.75379 31.4972 8.21591C32.8153 7.67803 34.2434 7.40909 35.7812 7.40909C37.0994 7.40909 38.3267 7.60227 39.4631 7.98864C40.5994 8.36742 41.607 8.9053 42.4858 9.60227C43.3722 10.2992 44.0956 11.1288 44.6562 12.0909C45.2169 13.0455 45.5767 14.0985 45.7358 15.25H40.7358ZM49.6477 31V7.72727H65.3295V11.7841H54.5682V17.3295H64.5227V21.3864H54.5682V26.9432H65.375V31H49.6477ZM81.8665 14.4205C81.7756 13.5038 81.3854 12.7917 80.696 12.2841C80.0066 11.7765 79.071 11.5227 77.8892 11.5227C77.0862 11.5227 76.4081 11.6364 75.8551 11.8636C75.3021 12.0833 74.8778 12.3902 74.5824 12.7841C74.2945 13.178 74.1506 13.625 74.1506 14.125C74.1354 14.5417 74.2225 14.9053 74.4119 15.2159C74.6089 15.5265 74.8778 15.7955 75.2188 16.0227C75.5597 16.2424 75.9536 16.4356 76.4006 16.6023C76.8475 16.7614 77.3248 16.8977 77.8324 17.0114L79.9233 17.5114C80.9384 17.7386 81.8703 18.0417 82.7188 18.4205C83.5672 18.7992 84.3021 19.2652 84.9233 19.8182C85.5445 20.3712 86.0256 21.0227 86.3665 21.7727C86.715 22.5227 86.893 23.3826 86.9006 24.3523C86.893 25.7765 86.5294 27.0114 85.8097 28.0568C85.0975 29.0947 84.0672 29.9015 82.7188 30.4773C81.3778 31.0455 79.7604 31.3295 77.8665 31.3295C75.9877 31.3295 74.3513 31.0417 72.9574 30.4659C71.571 29.8902 70.4877 29.0379 69.7074 27.9091C68.9347 26.7727 68.5294 25.3674 68.4915 23.6932H73.2528C73.3059 24.4735 73.5294 25.125 73.9233 25.6477C74.3248 26.1629 74.8589 26.553 75.5256 26.8182C76.1998 27.0758 76.9612 27.2045 77.8097 27.2045C78.643 27.2045 79.3665 27.0833 79.9801 26.8409C80.6013 26.5985 81.0824 26.2614 81.4233 25.8295C81.7642 25.3977 81.9347 24.9015 81.9347 24.3409C81.9347 23.8182 81.7794 23.3788 81.4688 23.0227C81.1657 22.6667 80.7188 22.3636 80.1278 22.1136C79.5445 21.8636 78.8286 21.6364 77.9801 21.4318L75.446 20.7955C73.4839 20.3182 71.9347 19.572 70.7983 18.5568C69.6619 17.5417 69.0975 16.1742 69.1051 14.4545C69.0975 13.0455 69.4725 11.8144 70.2301 10.7614C70.9953 9.70833 72.0445 8.88636 73.3778 8.29545C74.7112 7.70454 76.2263 7.40909 77.9233 7.40909C79.6506 7.40909 81.1581 7.70454 82.446 8.29545C83.7415 8.88636 84.7491 9.70833 85.4688 10.7614C86.1884 11.8144 86.5597 13.0341 86.5824 14.4205H81.8665Z" fill="white"/>
<path d="M96 0V36" stroke="white" stroke-width="1.5"/>
<path d="M106.852 16H103.759V7.27273H106.878C107.756 7.27273 108.511 7.44744 109.145 7.79688C109.778 8.14347 110.266 8.64205 110.607 9.29261C110.95 9.94318 111.122 10.7216 111.122 11.6278C111.122 12.5369 110.95 13.3182 110.607 13.9716C110.266 14.625 109.776 15.1264 109.136 15.4759C108.5 15.8253 107.739 16 106.852 16ZM105.604 14.419H106.776C107.321 14.419 107.78 14.3224 108.152 14.1293C108.527 13.9332 108.808 13.6307 108.996 13.2216C109.186 12.8097 109.281 12.2784 109.281 11.6278C109.281 10.983 109.186 10.456 108.996 10.0469C108.808 9.63778 108.528 9.33665 108.156 9.14347C107.784 8.95028 107.325 8.85369 106.78 8.85369H105.604V14.419ZM112.455 16V9.45455H114.27V16H112.455ZM113.367 8.6108C113.097 8.6108 112.865 8.52131 112.672 8.34233C112.482 8.16051 112.387 7.94318 112.387 7.69034C112.387 7.44034 112.482 7.22585 112.672 7.04688C112.865 6.86506 113.097 6.77415 113.367 6.77415C113.637 6.77415 113.867 6.86506 114.057 7.04688C114.25 7.22585 114.347 7.44034 114.347 7.69034C114.347 7.94318 114.25 8.16051 114.057 8.34233C113.867 8.52131 113.637 8.6108 113.367 8.6108ZM115.724 16V9.45455H117.484V10.5966H117.553C117.672 10.1903 117.872 9.88352 118.153 9.67614C118.435 9.46591 118.759 9.3608 119.125 9.3608C119.216 9.3608 119.314 9.36648 119.419 9.37784C119.524 9.3892 119.616 9.40483 119.696 9.42472V11.0355C119.611 11.0099 119.493 10.9872 119.342 10.9673C119.192 10.9474 119.054 10.9375 118.929 10.9375C118.662 10.9375 118.423 10.9957 118.213 11.1122C118.006 11.2259 117.841 11.3849 117.719 11.5895C117.599 11.794 117.54 12.0298 117.54 12.2969V16H115.724ZM123.313 16.1278C122.64 16.1278 122.06 15.9915 121.574 15.7188C121.091 15.4432 120.719 15.054 120.458 14.5511C120.196 14.0455 120.066 13.4474 120.066 12.7571C120.066 12.0838 120.196 11.4929 120.458 10.9844C120.719 10.4759 121.087 10.0795 121.561 9.79545C122.039 9.51136 122.598 9.36932 123.24 9.36932C123.672 9.36932 124.074 9.43892 124.446 9.57812C124.821 9.71449 125.148 9.92045 125.426 10.196C125.708 10.4716 125.926 10.8182 126.083 11.2358C126.239 11.6506 126.317 12.1364 126.317 12.6932V13.1918H120.79V12.0668H124.608C124.608 11.8054 124.551 11.5739 124.438 11.3722C124.324 11.1705 124.167 11.0128 123.965 10.8991C123.766 10.7827 123.534 10.7244 123.27 10.7244C122.995 10.7244 122.75 10.7884 122.537 10.9162C122.327 11.0412 122.162 11.2102 122.043 11.4233C121.924 11.6335 121.863 11.8679 121.86 12.1264V13.196C121.86 13.5199 121.919 13.7997 122.039 14.0355C122.161 14.2713 122.333 14.4531 122.554 14.581C122.776 14.7088 123.039 14.7727 123.343 14.7727C123.544 14.7727 123.729 14.7443 123.897 14.6875C124.064 14.6307 124.208 14.5455 124.327 14.4318C124.446 14.3182 124.537 14.179 124.6 14.0142L126.279 14.125C126.194 14.5284 126.019 14.8807 125.755 15.1818C125.493 15.4801 125.155 15.7131 124.74 15.8807C124.328 16.0455 123.853 16.1278 123.313 16.1278ZM130.459 16.1278C129.789 16.1278 129.212 15.9858 128.729 15.7017C128.249 15.4148 127.88 15.017 127.621 14.5085C127.365 14 127.238 13.4148 127.238 12.7528C127.238 12.0824 127.367 11.4943 127.625 10.9886C127.887 10.4801 128.257 10.0838 128.738 9.79972C129.218 9.51278 129.789 9.36932 130.451 9.36932C131.022 9.36932 131.522 9.47301 131.951 9.6804C132.38 9.88778 132.719 10.179 132.969 10.554C133.219 10.929 133.357 11.3693 133.382 11.875H131.669C131.621 11.5483 131.493 11.2855 131.286 11.0866C131.081 10.8849 130.813 10.7841 130.48 10.7841C130.199 10.7841 129.953 10.8608 129.743 11.0142C129.536 11.1648 129.374 11.3849 129.257 11.6747C129.141 11.9645 129.083 12.3153 129.083 12.7273C129.083 13.1449 129.14 13.5 129.253 13.7926C129.37 14.0852 129.533 14.3082 129.743 14.4616C129.953 14.6151 130.199 14.6918 130.48 14.6918C130.688 14.6918 130.874 14.6491 131.039 14.5639C131.206 14.4787 131.344 14.3551 131.452 14.1932C131.563 14.0284 131.635 13.831 131.669 13.6009H133.382C133.354 14.1009 133.218 14.5412 132.973 14.9219C132.732 15.2997 132.398 15.5952 131.972 15.8082C131.546 16.0213 131.042 16.1278 130.459 16.1278ZM137.502 16.1278C136.832 16.1278 136.255 15.9858 135.772 15.7017C135.292 15.4148 134.923 15.017 134.664 14.5085C134.408 14 134.281 13.4148 134.281 12.7528C134.281 12.0824 134.41 11.4943 134.668 10.9886C134.93 10.4801 135.3 10.0838 135.781 9.79972C136.261 9.51278 136.832 9.36932 137.494 9.36932C138.065 9.36932 138.565 9.47301 138.994 9.6804C139.423 9.88778 139.762 10.179 140.012 10.554C140.262 10.929 140.4 11.3693 140.425 11.875H138.712C138.664 11.5483 138.536 11.2855 138.329 11.0866C138.124 10.8849 137.856 10.7841 137.523 10.7841C137.242 10.7841 136.996 10.8608 136.786 11.0142C136.579 11.1648 136.417 11.3849 136.3 11.6747C136.184 11.9645 136.126 12.3153 136.126 12.7273C136.126 13.1449 136.183 13.5 136.296 13.7926C136.413 14.0852 136.576 14.3082 136.786 14.4616C136.996 14.6151 137.242 14.6918 137.523 14.6918C137.731 14.6918 137.917 14.6491 138.082 14.5639C138.249 14.4787 138.387 14.3551 138.495 14.1932C138.606 14.0284 138.678 13.831 138.712 13.6009H140.425C140.397 14.1009 140.261 14.5412 140.016 14.9219C139.775 15.2997 139.441 15.5952 139.015 15.8082C138.589 16.0213 138.085 16.1278 137.502 16.1278ZM141.588 16V9.45455H143.403V16H141.588ZM142.5 8.6108C142.23 8.6108 141.998 8.52131 141.805 8.34233C141.615 8.16051 141.52 7.94318 141.52 7.69034C141.52 7.44034 141.615 7.22585 141.805 7.04688C141.998 6.86506 142.23 6.77415 142.5 6.77415C142.77 6.77415 143 6.86506 143.19 7.04688C143.383 7.22585 143.48 7.44034 143.48 7.69034C143.48 7.94318 143.383 8.16051 143.19 8.34233C143 8.52131 142.77 8.6108 142.5 8.6108ZM147.815 16.1278C147.153 16.1278 146.58 15.9872 146.097 15.706C145.617 15.4219 145.246 15.027 144.985 14.5213C144.724 14.0128 144.593 13.4233 144.593 12.7528C144.593 12.0767 144.724 11.4858 144.985 10.9801C145.246 10.4716 145.617 10.0767 146.097 9.79545C146.58 9.51136 147.153 9.36932 147.815 9.36932C148.477 9.36932 149.048 9.51136 149.528 9.79545C150.011 10.0767 150.383 10.4716 150.644 10.9801C150.906 11.4858 151.036 12.0767 151.036 12.7528C151.036 13.4233 150.906 14.0128 150.644 14.5213C150.383 15.027 150.011 15.4219 149.528 15.706C149.048 15.9872 148.477 16.1278 147.815 16.1278ZM147.823 14.7216C148.124 14.7216 148.376 14.6364 148.577 14.4659C148.779 14.2926 148.931 14.0568 149.033 13.7585C149.138 13.4602 149.191 13.1207 149.191 12.7401C149.191 12.3594 149.138 12.0199 149.033 11.7216C148.931 11.4233 148.779 11.1875 148.577 11.0142C148.376 10.8409 148.124 10.7543 147.823 10.7543C147.519 10.7543 147.263 10.8409 147.056 11.0142C146.852 11.1875 146.697 11.4233 146.592 11.7216C146.489 12.0199 146.438 12.3594 146.438 12.7401C146.438 13.1207 146.489 13.4602 146.592 13.7585C146.697 14.0568 146.852 14.2926 147.056 14.4659C147.263 14.6364 147.519 14.7216 147.823 14.7216ZM147.163 8.6108L148.066 6.67188H149.745L148.445 8.6108H147.163ZM154.032 12.2159V16H152.217V9.45455H153.947V10.6094H154.023C154.168 10.2287 154.411 9.92756 154.752 9.70597C155.093 9.48153 155.506 9.36932 155.992 9.36932C156.447 9.36932 156.843 9.46875 157.181 9.66761C157.519 9.86648 157.782 10.1506 157.969 10.5199C158.157 10.8864 158.251 11.3239 158.251 11.8324V16H156.435V12.1562C156.438 11.7557 156.336 11.4432 156.129 11.2188C155.921 10.9915 155.636 10.8778 155.272 10.8778C155.028 10.8778 154.812 10.9304 154.624 11.0355C154.44 11.1406 154.295 11.294 154.19 11.4957C154.087 11.6946 154.035 11.9347 154.032 12.2159ZM168.28 10.0938C168.22 9.88636 168.136 9.70312 168.028 9.54403C167.92 9.3821 167.788 9.24574 167.632 9.13494C167.479 9.02131 167.303 8.93466 167.104 8.875C166.908 8.81534 166.69 8.78551 166.452 8.78551C166.006 8.78551 165.614 8.89631 165.276 9.1179C164.94 9.33949 164.679 9.66193 164.491 10.0852C164.304 10.5057 164.21 11.0199 164.21 11.6278C164.21 12.2358 164.303 12.7528 164.487 13.179C164.672 13.6051 164.933 13.9304 165.271 14.1548C165.609 14.3764 166.009 14.4872 166.469 14.4872C166.886 14.4872 167.243 14.4134 167.538 14.2656C167.837 14.1151 168.064 13.9034 168.22 13.6307C168.379 13.358 168.459 13.0355 168.459 12.6634L168.834 12.7188H166.584V11.3295H170.236V12.429C170.236 13.196 170.074 13.8551 169.75 14.4062C169.426 14.9545 168.98 15.3778 168.412 15.6761C167.844 15.9716 167.193 16.1193 166.46 16.1193C165.642 16.1193 164.923 15.9389 164.304 15.5781C163.685 15.2145 163.202 14.6989 162.855 14.0312C162.511 13.3608 162.339 12.5653 162.339 11.6449C162.339 10.9375 162.442 10.3068 162.646 9.75284C162.854 9.19602 163.143 8.72443 163.516 8.33807C163.888 7.9517 164.321 7.65767 164.815 7.45597C165.31 7.25426 165.845 7.15341 166.422 7.15341C166.916 7.15341 167.376 7.22585 167.803 7.37074C168.229 7.51278 168.607 7.71449 168.936 7.97585C169.268 8.23722 169.54 8.5483 169.75 8.90909C169.96 9.26705 170.095 9.66193 170.155 10.0938H168.28ZM174.571 16.1278C173.897 16.1278 173.318 15.9915 172.832 15.7188C172.349 15.4432 171.977 15.054 171.716 14.5511C171.454 14.0455 171.324 13.4474 171.324 12.7571C171.324 12.0838 171.454 11.4929 171.716 10.9844C171.977 10.4759 172.345 10.0795 172.819 9.79545C173.297 9.51136 173.856 9.36932 174.498 9.36932C174.93 9.36932 175.332 9.43892 175.704 9.57812C176.079 9.71449 176.406 9.92045 176.684 10.196C176.966 10.4716 177.184 10.8182 177.341 11.2358C177.497 11.6506 177.575 12.1364 177.575 12.6932V13.1918H172.048V12.0668H175.866C175.866 11.8054 175.809 11.5739 175.696 11.3722C175.582 11.1705 175.424 11.0128 175.223 10.8991C175.024 10.7827 174.792 10.7244 174.528 10.7244C174.252 10.7244 174.008 10.7884 173.795 10.9162C173.585 11.0412 173.42 11.2102 173.301 11.4233C173.181 11.6335 173.12 11.8679 173.118 12.1264V13.196C173.118 13.5199 173.177 13.7997 173.297 14.0355C173.419 14.2713 173.591 14.4531 173.812 14.581C174.034 14.7088 174.297 14.7727 174.6 14.7727C174.802 14.7727 174.987 14.7443 175.154 14.6875C175.322 14.6307 175.466 14.5455 175.585 14.4318C175.704 14.3182 175.795 14.179 175.858 14.0142L177.537 14.125C177.451 14.5284 177.277 14.8807 177.012 15.1818C176.751 15.4801 176.413 15.7131 175.998 15.8807C175.586 16.0455 175.11 16.1278 174.571 16.1278ZM180.575 12.2159V16H178.76V9.45455H180.49V10.6094H180.566C180.711 10.2287 180.954 9.92756 181.295 9.70597C181.636 9.48153 182.049 9.36932 182.535 9.36932C182.99 9.36932 183.386 9.46875 183.724 9.66761C184.062 9.86648 184.325 10.1506 184.512 10.5199C184.7 10.8864 184.794 11.3239 184.794 11.8324V16H182.978V12.1562C182.981 11.7557 182.879 11.4432 182.672 11.2188C182.464 10.9915 182.179 10.8778 181.815 10.8778C181.571 10.8778 181.355 10.9304 181.167 11.0355C180.983 11.1406 180.838 11.294 180.733 11.4957C180.63 11.6946 180.578 11.9347 180.575 12.2159ZM189.207 16.1278C188.534 16.1278 187.955 15.9915 187.469 15.7188C186.986 15.4432 186.614 15.054 186.352 14.5511C186.091 14.0455 185.96 13.4474 185.96 12.7571C185.96 12.0838 186.091 11.4929 186.352 10.9844C186.614 10.4759 186.982 10.0795 187.456 9.79545C187.933 9.51136 188.493 9.36932 189.135 9.36932C189.567 9.36932 189.969 9.43892 190.341 9.57812C190.716 9.71449 191.043 9.92045 191.321 10.196C191.602 10.4716 191.821 10.8182 191.977 11.2358C192.134 11.6506 192.212 12.1364 192.212 12.6932V13.1918H186.685V12.0668H190.503C190.503 11.8054 190.446 11.5739 190.332 11.3722C190.219 11.1705 190.061 11.0128 189.859 10.8991C189.661 10.7827 189.429 10.7244 189.165 10.7244C188.889 10.7244 188.645 10.7884 188.432 10.9162C188.222 11.0412 188.057 11.2102 187.938 11.4233C187.818 11.6335 187.757 11.8679 187.754 12.1264V13.196C187.754 13.5199 187.814 13.7997 187.933 14.0355C188.055 14.2713 188.227 14.4531 188.449 14.581C188.67 14.7088 188.933 14.7727 189.237 14.7727C189.439 14.7727 189.624 14.7443 189.791 14.6875C189.959 14.6307 190.102 14.5455 190.222 14.4318C190.341 14.3182 190.432 14.179 190.494 14.0142L192.173 14.125C192.088 14.5284 191.913 14.8807 191.649 15.1818C191.388 15.4801 191.05 15.7131 190.635 15.8807C190.223 16.0455 189.747 16.1278 189.207 16.1278ZM193.396 16V9.45455H195.156V10.5966H195.224C195.344 10.1903 195.544 9.88352 195.825 9.67614C196.107 9.46591 196.43 9.3608 196.797 9.3608C196.888 9.3608 196.986 9.36648 197.091 9.37784C197.196 9.3892 197.288 9.40483 197.368 9.42472V11.0355C197.283 11.0099 197.165 10.9872 197.014 10.9673C196.864 10.9474 196.726 10.9375 196.601 10.9375C196.334 10.9375 196.095 10.9957 195.885 11.1122C195.678 11.2259 195.513 11.3849 195.391 11.5895C195.271 11.794 195.212 12.0298 195.212 12.2969V16H193.396ZM199.985 16.1236C199.568 16.1236 199.196 16.0511 198.869 15.9062C198.542 15.7585 198.284 15.5412 198.093 15.2543C197.906 14.9645 197.812 14.6037 197.812 14.1719C197.812 13.8082 197.879 13.5028 198.012 13.2557C198.146 13.0085 198.328 12.8097 198.558 12.6591C198.788 12.5085 199.049 12.3949 199.342 12.3182C199.637 12.2415 199.947 12.1875 200.271 12.1562C200.652 12.1165 200.958 12.0795 201.191 12.0455C201.424 12.0085 201.593 11.9545 201.699 11.8835C201.804 11.8125 201.856 11.7074 201.856 11.5682V11.5426C201.856 11.2727 201.771 11.0639 201.6 10.9162C201.433 10.7685 201.194 10.6946 200.885 10.6946C200.558 10.6946 200.298 10.767 200.105 10.9119C199.912 11.054 199.784 11.233 199.721 11.4489L198.042 11.3125C198.127 10.9148 198.295 10.571 198.545 10.2812C198.795 9.98864 199.118 9.7642 199.512 9.60795C199.91 9.44886 200.37 9.36932 200.893 9.36932C201.257 9.36932 201.605 9.41193 201.937 9.49716C202.272 9.58239 202.569 9.71449 202.828 9.89347C203.089 10.0724 203.295 10.3026 203.446 10.5838C203.596 10.8622 203.672 11.196 203.672 11.5852V16H201.95V15.0923H201.899C201.794 15.2969 201.653 15.4773 201.477 15.6335C201.301 15.7869 201.089 15.9077 200.842 15.9957C200.595 16.081 200.309 16.1236 199.985 16.1236ZM200.505 14.8707C200.772 14.8707 201.008 14.8182 201.213 14.7131C201.417 14.6051 201.578 14.4602 201.694 14.2784C201.811 14.0966 201.869 13.8906 201.869 13.6605V12.9659C201.812 13.0028 201.734 13.0369 201.635 13.0682C201.538 13.0966 201.429 13.1236 201.306 13.1491C201.184 13.1719 201.062 13.1932 200.94 13.2131C200.818 13.2301 200.707 13.2457 200.608 13.2599C200.395 13.2912 200.208 13.3409 200.049 13.4091C199.89 13.4773 199.767 13.5696 199.679 13.6861C199.591 13.7997 199.547 13.9418 199.547 14.1122C199.547 14.3594 199.636 14.5483 199.815 14.679C199.997 14.8068 200.227 14.8707 200.505 14.8707ZM206.895 7.27273V16H205.08V7.27273H206.895ZM213.539 16.1065C213.042 16.1065 212.591 15.9787 212.188 15.723C211.787 15.4645 211.469 15.0852 211.233 14.5852C211 14.0824 210.884 13.4659 210.884 12.7358C210.884 11.9858 211.005 11.3622 211.246 10.8651C211.488 10.3651 211.809 9.99148 212.209 9.74432C212.613 9.49432 213.054 9.36932 213.534 9.36932C213.901 9.36932 214.206 9.43182 214.451 9.55682C214.698 9.67898 214.897 9.83239 215.047 10.017C215.201 10.1989 215.317 10.3778 215.397 10.554H215.452V7.27273H217.263V16H215.473V14.9517H215.397C215.311 15.1335 215.191 15.3139 215.034 15.4929C214.881 15.669 214.681 15.8153 214.434 15.9318C214.189 16.0483 213.891 16.1065 213.539 16.1065ZM214.114 14.6619C214.407 14.6619 214.654 14.5824 214.855 14.4233C215.06 14.2614 215.216 14.0355 215.324 13.7457C215.435 13.456 215.49 13.1165 215.49 12.7273C215.49 12.3381 215.436 12 215.328 11.7131C215.221 11.4261 215.064 11.2045 214.86 11.0483C214.655 10.892 214.407 10.8139 214.114 10.8139C213.816 10.8139 213.564 10.8949 213.36 11.0568C213.155 11.2187 213 11.4432 212.895 11.7301C212.79 12.017 212.738 12.3494 212.738 12.7273C212.738 13.108 212.79 13.4446 212.895 13.7372C213.003 14.027 213.158 14.2543 213.36 14.419C213.564 14.581 213.816 14.6619 214.114 14.6619ZM221.739 16.1278C221.065 16.1278 220.486 15.9915 220 15.7188C219.517 15.4432 219.145 15.054 218.884 14.5511C218.622 14.0455 218.491 13.4474 218.491 12.7571C218.491 12.0838 218.622 11.4929 218.884 10.9844C219.145 10.4759 219.513 10.0795 219.987 9.79545C220.464 9.51136 221.024 9.36932 221.666 9.36932C222.098 9.36932 222.5 9.43892 222.872 9.57812C223.247 9.71449 223.574 9.92045 223.852 10.196C224.134 10.4716 224.352 10.8182 224.509 11.2358C224.665 11.6506 224.743 12.1364 224.743 12.6932V13.1918H219.216V12.0668H223.034C223.034 11.8054 222.977 11.5739 222.864 11.3722C222.75 11.1705 222.592 11.0128 222.391 10.8991C222.192 10.7827 221.96 10.7244 221.696 10.7244C221.42 10.7244 221.176 10.7884 220.963 10.9162C220.753 11.0412 220.588 11.2102 220.469 11.4233C220.349 11.6335 220.288 11.8679 220.286 12.1264V13.196C220.286 13.5199 220.345 13.7997 220.464 14.0355C220.587 14.2713 220.759 14.4531 220.98 14.581C221.202 14.7088 221.464 14.7727 221.768 14.7727C221.97 14.7727 222.155 14.7443 222.322 14.6875C222.49 14.6307 222.634 14.5455 222.753 14.4318C222.872 14.3182 222.963 14.179 223.026 14.0142L224.705 14.125C224.619 14.5284 224.445 14.8807 224.18 15.1818C223.919 15.4801 223.581 15.7131 223.166 15.8807C222.754 16.0455 222.278 16.1278 221.739 16.1278Z" fill="white"/>
<path d="M103.759 30V21.2727H109.639V22.794H105.604V24.8736H109.337V26.3949H105.604V28.4787H109.656V30H103.759ZM113.484 30.1065C112.987 30.1065 112.537 29.9787 112.133 29.723C111.733 29.4645 111.414 29.0852 111.179 28.5852C110.946 28.0824 110.829 27.4659 110.829 26.7358C110.829 25.9858 110.95 25.3622 111.191 24.8651C111.433 24.3651 111.754 23.9915 112.154 23.7443C112.558 23.4943 113 23.3693 113.48 23.3693C113.846 23.3693 114.152 23.4318 114.396 23.5568C114.643 23.679 114.842 23.8324 114.993 24.017C115.146 24.1989 115.262 24.3778 115.342 24.554H115.397V21.2727H117.208V30H115.419V28.9517H115.342C115.257 29.1335 115.136 29.3139 114.98 29.4929C114.826 29.669 114.626 29.8153 114.379 29.9318C114.135 30.0483 113.836 30.1065 113.484 30.1065ZM114.059 28.6619C114.352 28.6619 114.599 28.5824 114.801 28.4233C115.005 28.2614 115.162 28.0355 115.27 27.7457C115.38 27.456 115.436 27.1165 115.436 26.7273C115.436 26.3381 115.382 26 115.274 25.7131C115.166 25.4261 115.01 25.2045 114.805 25.0483C114.6 24.892 114.352 24.8139 114.059 24.8139C113.761 24.8139 113.51 24.8949 113.305 25.0568C113.1 25.2187 112.946 25.4432 112.841 25.7301C112.735 26.017 112.683 26.3494 112.683 26.7273C112.683 27.108 112.735 27.4446 112.841 27.7372C112.949 28.027 113.103 28.2543 113.305 28.419C113.51 28.581 113.761 28.6619 114.059 28.6619ZM122.898 27.2131V23.4545H124.714V30H122.971V28.8111H122.903C122.755 29.1946 122.509 29.5028 122.165 29.7358C121.825 29.9687 121.408 30.0852 120.917 30.0852C120.479 30.0852 120.094 29.9858 119.762 29.7869C119.43 29.5881 119.17 29.3054 118.982 28.9389C118.798 28.5724 118.704 28.1335 118.701 27.6222V23.4545H120.516V27.2983C120.519 27.6847 120.623 27.9901 120.827 28.2145C121.032 28.4389 121.306 28.5511 121.65 28.5511C121.869 28.5511 122.073 28.5014 122.263 28.402C122.454 28.2997 122.607 28.1491 122.724 27.9503C122.843 27.7514 122.901 27.5057 122.898 27.2131ZM129.123 30.1278C128.453 30.1278 127.876 29.9858 127.393 29.7017C126.913 29.4148 126.544 29.017 126.285 28.5085C126.029 28 125.902 27.4148 125.902 26.7528C125.902 26.0824 126.031 25.4943 126.289 24.9886C126.551 24.4801 126.922 24.0838 127.402 23.7997C127.882 23.5128 128.453 23.3693 129.115 23.3693C129.686 23.3693 130.186 23.473 130.615 23.6804C131.044 23.8878 131.383 24.179 131.633 24.554C131.883 24.929 132.021 25.3693 132.047 25.875H130.333C130.285 25.5483 130.157 25.2855 129.95 25.0866C129.745 24.8849 129.477 24.7841 129.145 24.7841C128.863 24.7841 128.618 24.8608 128.407 25.0142C128.2 25.1648 128.038 25.3849 127.922 25.6747C127.805 25.9645 127.747 26.3153 127.747 26.7273C127.747 27.1449 127.804 27.5 127.917 27.7926C128.034 28.0852 128.197 28.3082 128.407 28.4616C128.618 28.6151 128.863 28.6918 129.145 28.6918C129.352 28.6918 129.538 28.6491 129.703 28.5639C129.87 28.4787 130.008 28.3551 130.116 28.1932C130.227 28.0284 130.299 27.831 130.333 27.6009H132.047C132.018 28.1009 131.882 28.5412 131.637 28.9219C131.396 29.2997 131.062 29.5952 130.636 29.8082C130.21 30.0213 129.706 30.1278 129.123 30.1278ZM135.075 30.1236C134.658 30.1236 134.286 30.0511 133.959 29.9062C133.632 29.7585 133.374 29.5412 133.183 29.2543C132.996 28.9645 132.902 28.6037 132.902 28.1719C132.902 27.8082 132.969 27.5028 133.102 27.2557C133.236 27.0085 133.418 26.8097 133.648 26.6591C133.878 26.5085 134.139 26.3949 134.432 26.3182C134.727 26.2415 135.037 26.1875 135.361 26.1562C135.741 26.1165 136.048 26.0795 136.281 26.0455C136.514 26.0085 136.683 25.9545 136.788 25.8835C136.893 25.8125 136.946 25.7074 136.946 25.5682V25.5426C136.946 25.2727 136.861 25.0639 136.69 24.9162C136.523 24.7685 136.284 24.6946 135.974 24.6946C135.648 24.6946 135.388 24.767 135.195 24.9119C135.001 25.054 134.874 25.233 134.811 25.4489L133.132 25.3125C133.217 24.9148 133.385 24.571 133.635 24.2812C133.885 23.9886 134.207 23.7642 134.602 23.608C135 23.4489 135.46 23.3693 135.983 23.3693C136.347 23.3693 136.695 23.4119 137.027 23.4972C137.362 23.5824 137.659 23.7145 137.918 23.8935C138.179 24.0724 138.385 24.3026 138.536 24.5838C138.686 24.8622 138.761 25.196 138.761 25.5852V30H137.04V29.0923H136.989C136.884 29.2969 136.743 29.4773 136.567 29.6335C136.391 29.7869 136.179 29.9077 135.932 29.9957C135.685 30.081 135.399 30.1236 135.075 30.1236ZM135.595 28.8707C135.862 28.8707 136.098 28.8182 136.303 28.7131C136.507 28.6051 136.668 28.4602 136.784 28.2784C136.901 28.0966 136.959 27.8906 136.959 27.6605V26.9659C136.902 27.0028 136.824 27.0369 136.724 27.0682C136.628 27.0966 136.518 27.1236 136.396 27.1491C136.274 27.1719 136.152 27.1932 136.03 27.2131C135.908 27.2301 135.797 27.2457 135.697 27.2599C135.484 27.2912 135.298 27.3409 135.139 27.4091C134.98 27.4773 134.857 27.5696 134.768 27.6861C134.68 27.7997 134.636 27.9418 134.636 28.1122C134.636 28.3594 134.726 28.5483 134.905 28.679C135.087 28.8068 135.317 28.8707 135.595 28.8707ZM143.127 30.1278C142.457 30.1278 141.88 29.9858 141.397 29.7017C140.917 29.4148 140.548 29.017 140.289 28.5085C140.033 28 139.906 27.4148 139.906 26.7528C139.906 26.0824 140.035 25.4943 140.293 24.9886C140.555 24.4801 140.925 24.0838 141.406 23.7997C141.886 23.5128 142.457 23.3693 143.119 23.3693C143.69 23.3693 144.19 23.473 144.619 23.6804C145.048 23.8878 145.387 24.179 145.637 24.554C145.887 24.929 146.025 25.3693 146.05 25.875H144.337C144.289 25.5483 144.161 25.2855 143.954 25.0866C143.749 24.8849 143.481 24.7841 143.148 24.7841C142.867 24.7841 142.621 24.8608 142.411 25.0142C142.204 25.1648 142.042 25.3849 141.925 25.6747C141.809 25.9645 141.751 26.3153 141.751 26.7273C141.751 27.1449 141.808 27.5 141.921 27.7926C142.038 28.0852 142.201 28.3082 142.411 28.4616C142.621 28.6151 142.867 28.6918 143.148 28.6918C143.356 28.6918 143.542 28.6491 143.707 28.5639C143.874 28.4787 144.012 28.3551 144.12 28.1932C144.231 28.0284 144.303 27.831 144.337 27.6009H146.05C146.022 28.1009 145.886 28.5412 145.641 28.9219C145.4 29.2997 145.066 29.5952 144.64 29.8082C144.214 30.0213 143.71 30.1278 143.127 30.1278ZM147.213 30V23.4545H149.028V30H147.213ZM148.125 22.6108C147.855 22.6108 147.623 22.5213 147.43 22.3423C147.24 22.1605 147.145 21.9432 147.145 21.6903C147.145 21.4403 147.24 21.2259 147.43 21.0469C147.623 20.8651 147.855 20.7741 148.125 20.7741C148.395 20.7741 148.625 20.8651 148.815 21.0469C149.008 21.2259 149.105 21.4403 149.105 21.6903C149.105 21.9432 149.008 22.1605 148.815 22.3423C148.625 22.5213 148.395 22.6108 148.125 22.6108ZM153.44 30.1278C152.778 30.1278 152.205 29.9872 151.722 29.706C151.242 29.4219 150.871 29.027 150.61 28.5213C150.349 28.0128 150.218 27.4233 150.218 26.7528C150.218 26.0767 150.349 25.4858 150.61 24.9801C150.871 24.4716 151.242 24.0767 151.722 23.7955C152.205 23.5114 152.778 23.3693 153.44 23.3693C154.102 23.3693 154.673 23.5114 155.153 23.7955C155.636 24.0767 156.008 24.4716 156.269 24.9801C156.531 25.4858 156.661 26.0767 156.661 26.7528C156.661 27.4233 156.531 28.0128 156.269 28.5213C156.008 29.027 155.636 29.4219 155.153 29.706C154.673 29.9872 154.102 30.1278 153.44 30.1278ZM153.448 28.7216C153.749 28.7216 154.001 28.6364 154.202 28.4659C154.404 28.2926 154.556 28.0568 154.658 27.7585C154.763 27.4602 154.816 27.1207 154.816 26.7401C154.816 26.3594 154.763 26.0199 154.658 25.7216C154.556 25.4233 154.404 25.1875 154.202 25.0142C154.001 24.8409 153.749 24.7543 153.448 24.7543C153.144 24.7543 152.888 24.8409 152.681 25.0142C152.477 25.1875 152.322 25.4233 152.217 25.7216C152.114 26.0199 152.063 26.3594 152.063 26.7401C152.063 27.1207 152.114 27.4602 152.217 27.7585C152.322 28.0568 152.477 28.2926 152.681 28.4659C152.888 28.6364 153.144 28.7216 153.448 28.7216ZM152.788 22.6108L153.691 20.6719H155.37L154.07 22.6108H152.788ZM159.657 26.2159V30H157.842V23.4545H159.572V24.6094H159.648C159.793 24.2287 160.036 23.9276 160.377 23.706C160.718 23.4815 161.131 23.3693 161.617 23.3693C162.072 23.3693 162.468 23.4688 162.806 23.6676C163.144 23.8665 163.407 24.1506 163.594 24.5199C163.782 24.8864 163.876 25.3239 163.876 25.8324V30H162.06V26.1562C162.063 25.7557 161.961 25.4432 161.754 25.2188C161.546 24.9915 161.261 24.8778 160.897 24.8778C160.653 24.8778 160.437 24.9304 160.249 25.0355C160.065 25.1406 159.92 25.294 159.815 25.4957C159.712 25.6946 159.66 25.9347 159.657 26.2159ZM172.852 23.7827C172.818 23.4389 172.672 23.1719 172.413 22.9815C172.155 22.7912 171.804 22.696 171.361 22.696C171.06 22.696 170.805 22.7386 170.598 22.8239C170.391 22.9062 170.232 23.0213 170.121 23.169C170.013 23.3168 169.959 23.4844 169.959 23.6719C169.953 23.8281 169.986 23.9645 170.057 24.081C170.131 24.1974 170.232 24.2983 170.359 24.3835C170.487 24.4659 170.635 24.5384 170.803 24.6009C170.97 24.6605 171.149 24.7116 171.339 24.7543L172.124 24.9418C172.504 25.027 172.854 25.1406 173.172 25.2827C173.49 25.4247 173.766 25.5994 173.999 25.8068C174.232 26.0142 174.412 26.2585 174.54 26.5398C174.67 26.821 174.737 27.1435 174.74 27.5071C174.737 28.0412 174.601 28.5043 174.331 28.8963C174.064 29.2855 173.678 29.5881 173.172 29.804C172.669 30.017 172.063 30.1236 171.352 30.1236C170.648 30.1236 170.034 30.0156 169.511 29.7997C168.991 29.5838 168.585 29.2642 168.293 28.8409C168.003 28.4148 167.851 27.8878 167.837 27.2599H169.622C169.642 27.5526 169.726 27.7969 169.874 27.9929C170.024 28.1861 170.224 28.3324 170.474 28.4318C170.727 28.5284 171.013 28.5767 171.331 28.5767C171.643 28.5767 171.915 28.5312 172.145 28.4403C172.378 28.3494 172.558 28.223 172.686 28.0611C172.814 27.8991 172.878 27.7131 172.878 27.5028C172.878 27.3068 172.82 27.142 172.703 27.0085C172.589 26.875 172.422 26.7614 172.2 26.6676C171.982 26.5739 171.713 26.4886 171.395 26.4119L170.445 26.1733C169.709 25.9943 169.128 25.7145 168.702 25.3338C168.276 24.9531 168.064 24.4403 168.067 23.7955C168.064 23.267 168.205 22.8054 168.489 22.4105C168.776 22.0156 169.169 21.7074 169.669 21.4858C170.169 21.2642 170.737 21.1534 171.374 21.1534C172.021 21.1534 172.587 21.2642 173.07 21.4858C173.555 21.7074 173.933 22.0156 174.203 22.4105C174.473 22.8054 174.612 23.2628 174.621 23.7827H172.852ZM180.145 27.2131V23.4545H181.96V30H180.217V28.8111H180.149C180.001 29.1946 179.755 29.5028 179.412 29.7358C179.071 29.9687 178.654 30.0852 178.163 30.0852C177.725 30.0852 177.341 29.9858 177.008 29.7869C176.676 29.5881 176.416 29.3054 176.228 28.9389C176.044 28.5724 175.95 28.1335 175.947 27.6222V23.4545H177.762V27.2983C177.765 27.6847 177.869 27.9901 178.074 28.2145C178.278 28.4389 178.552 28.5511 178.896 28.5511C179.115 28.5511 179.319 28.5014 179.51 28.402C179.7 28.2997 179.853 28.1491 179.97 27.9503C180.089 27.7514 180.147 27.5057 180.145 27.2131ZM183.412 32.4545V23.4545H185.202V24.554H185.283C185.362 24.3778 185.477 24.1989 185.628 24.017C185.781 23.8324 185.98 23.679 186.224 23.5568C186.472 23.4318 186.778 23.3693 187.145 23.3693C187.622 23.3693 188.063 23.4943 188.466 23.7443C188.869 23.9915 189.192 24.3651 189.433 24.8651C189.675 25.3622 189.795 25.9858 189.795 26.7358C189.795 27.4659 189.678 28.0824 189.442 28.5852C189.209 29.0852 188.891 29.4645 188.487 29.723C188.087 29.9787 187.638 30.1065 187.141 30.1065C186.788 30.1065 186.489 30.0483 186.241 29.9318C185.997 29.8153 185.797 29.669 185.641 29.4929C185.484 29.3139 185.365 29.1335 185.283 28.9517H185.227V32.4545H183.412ZM185.189 26.7273C185.189 27.1165 185.243 27.456 185.351 27.7457C185.459 28.0355 185.615 28.2614 185.82 28.4233C186.024 28.5824 186.273 28.6619 186.565 28.6619C186.861 28.6619 187.111 28.581 187.315 28.419C187.52 28.2543 187.675 28.027 187.78 27.7372C187.888 27.4446 187.942 27.108 187.942 26.7273C187.942 26.3494 187.889 26.017 187.784 25.7301C187.679 25.4432 187.524 25.2187 187.32 25.0568C187.115 24.8949 186.864 24.8139 186.565 24.8139C186.27 24.8139 186.02 24.892 185.815 25.0483C185.614 25.2045 185.459 25.4261 185.351 25.7131C185.243 26 185.189 26.3381 185.189 26.7273ZM193.989 30.1278C193.315 30.1278 192.736 29.9915 192.25 29.7188C191.767 29.4432 191.395 29.054 191.134 28.5511C190.872 28.0455 190.741 27.4474 190.741 26.7571C190.741 26.0838 190.872 25.4929 191.134 24.9844C191.395 24.4759 191.763 24.0795 192.237 23.7955C192.714 23.5114 193.274 23.3693 193.916 23.3693C194.348 23.3693 194.75 23.4389 195.122 23.5781C195.497 23.7145 195.824 23.9205 196.102 24.196C196.384 24.4716 196.602 24.8182 196.759 25.2358C196.915 25.6506 196.993 26.1364 196.993 26.6932V27.1918H191.466V26.0668H195.284C195.284 25.8054 195.227 25.5739 195.114 25.3722C195 25.1705 194.842 25.0128 194.641 24.8991C194.442 24.7827 194.21 24.7244 193.946 24.7244C193.67 24.7244 193.426 24.7884 193.213 24.9162C193.003 25.0412 192.838 25.2102 192.719 25.4233C192.599 25.6335 192.538 25.8679 192.536 26.1264V27.196C192.536 27.5199 192.595 27.7997 192.714 28.0355C192.837 28.2713 193.009 28.4531 193.23 28.581C193.452 28.7088 193.714 28.7727 194.018 28.7727C194.22 28.7727 194.405 28.7443 194.572 28.6875C194.74 28.6307 194.884 28.5455 195.003 28.4318C195.122 28.3182 195.213 28.179 195.276 28.0142L196.955 28.125C196.869 28.5284 196.695 28.8807 196.43 29.1818C196.169 29.4801 195.831 29.7131 195.416 29.8807C195.004 30.0455 194.528 30.1278 193.989 30.1278ZM198.178 30V23.4545H199.938V24.5966H200.006C200.125 24.1903 200.325 23.8835 200.607 23.6761C200.888 23.4659 201.212 23.3608 201.578 23.3608C201.669 23.3608 201.767 23.3665 201.872 23.3778C201.977 23.3892 202.07 23.4048 202.149 23.4247V25.0355C202.064 25.0099 201.946 24.9872 201.795 24.9673C201.645 24.9474 201.507 24.9375 201.382 24.9375C201.115 24.9375 200.876 24.9957 200.666 25.1122C200.459 25.2259 200.294 25.3849 200.172 25.5895C200.053 25.794 199.993 26.0298 199.993 26.2969V30H198.178ZM203.088 30V23.4545H204.903V30H203.088ZM204 22.6108C203.73 22.6108 203.498 22.5213 203.305 22.3423C203.115 22.1605 203.02 21.9432 203.02 21.6903C203.02 21.4403 203.115 21.2259 203.305 21.0469C203.498 20.8651 203.73 20.7741 204 20.7741C204.27 20.7741 204.5 20.8651 204.69 21.0469C204.883 21.2259 204.98 21.4403 204.98 21.6903C204.98 21.9432 204.883 22.1605 204.69 22.3423C204.5 22.5213 204.27 22.6108 204 22.6108ZM209.315 30.1278C208.653 30.1278 208.08 29.9872 207.597 29.706C207.117 29.4219 206.746 29.027 206.485 28.5213C206.224 28.0128 206.093 27.4233 206.093 26.7528C206.093 26.0767 206.224 25.4858 206.485 24.9801C206.746 24.4716 207.117 24.0767 207.597 23.7955C208.08 23.5114 208.653 23.3693 209.315 23.3693C209.977 23.3693 210.548 23.5114 211.028 23.7955C211.511 24.0767 211.883 24.4716 212.144 24.9801C212.406 25.4858 212.536 26.0767 212.536 26.7528C212.536 27.4233 212.406 28.0128 212.144 28.5213C211.883 29.027 211.511 29.4219 211.028 29.706C210.548 29.9872 209.977 30.1278 209.315 30.1278ZM209.323 28.7216C209.624 28.7216 209.876 28.6364 210.077 28.4659C210.279 28.2926 210.431 28.0568 210.533 27.7585C210.638 27.4602 210.691 27.1207 210.691 26.7401C210.691 26.3594 210.638 26.0199 210.533 25.7216C210.431 25.4233 210.279 25.1875 210.077 25.0142C209.876 24.8409 209.624 24.7543 209.323 24.7543C209.019 24.7543 208.763 24.8409 208.556 25.0142C208.352 25.1875 208.197 25.4233 208.092 25.7216C207.989 26.0199 207.938 26.3594 207.938 26.7401C207.938 27.1207 207.989 27.4602 208.092 27.7585C208.197 28.0568 208.352 28.2926 208.556 28.4659C208.763 28.6364 209.019 28.7216 209.323 28.7216ZM213.717 30V23.4545H215.477V24.5966H215.545C215.664 24.1903 215.864 23.8835 216.146 23.6761C216.427 23.4659 216.751 23.3608 217.117 23.3608C217.208 23.3608 217.306 23.3665 217.411 23.3778C217.516 23.3892 217.609 23.4048 217.688 23.4247V25.0355C217.603 25.0099 217.485 24.9872 217.335 24.9673C217.184 24.9474 217.046 24.9375 216.921 24.9375C216.654 24.9375 216.415 24.9957 216.205 25.1122C215.998 25.2259 215.833 25.3849 215.711 25.5895C215.592 25.794 215.532 26.0298 215.532 26.2969V30H213.717Z" fill="white"/>
</svg>
