<svg width="247" height="30" viewBox="0 0 247 30" fill="none" xmlns="http://www.w3.org/2000/svg">
<path d="M17.19 14.7101V23.9401H11.53V15.6301C11.53 13.3101 10.52 12.3301 8.88 12.3301C7.06 12.3301 5.66 13.4601 5.66 16.1401V23.9401H0V1.8501H5.66V9.2901C6.91 8.1301 8.61 7.5301 10.51 7.5301C14.29 7.5301 17.18 9.7001 17.18 14.7001L17.19 14.7101Z" fill="white"/>
<path d="M20.1099 3.01C20.1099 1.31 21.4799 0 23.5599 0C25.6399 0 27.0099 1.22 27.0099 2.92C27.0099 4.71 25.6399 6.02 23.5599 6.02C21.4799 6.02 20.1099 4.71 20.1099 3.01ZM20.7299 7.8H26.3899V23.94H20.7299V7.8Z" fill="white"/>
<path d="M47.1999 1.8501V23.9401H41.8099V22.3301C40.7399 23.6101 39.1599 24.2101 37.0799 24.2101C32.6699 24.2101 29.1299 21.0001 29.1299 15.8401C29.1299 10.6801 32.6699 7.5301 37.0799 7.5301C38.9599 7.5301 40.4699 8.0701 41.5499 9.2001V1.8501H47.2099H47.1999ZM41.6299 15.8401C41.6299 13.4001 40.1699 12.0301 38.2699 12.0301C36.3699 12.0301 34.8799 13.4001 34.8799 15.8401C34.8799 18.2801 36.3399 19.7101 38.2699 19.7101C40.1999 19.7101 41.6299 18.3101 41.6299 15.8401Z" fill="white"/>
<path d="M65.9599 14.98V23.94H60.6899V21.86C59.8899 23.41 58.2799 24.21 55.9299 24.21C52.0599 24.21 49.9199 22.04 49.9199 19.24C49.9199 16.26 52.0899 14.42 57.0899 14.42H60.2999C60.2099 12.78 59.1099 11.86 56.8799 11.86C55.3299 11.86 53.6099 12.4 52.4999 13.26L50.5899 9.42004C52.4399 8.20004 55.1699 7.54004 57.7099 7.54004C62.9499 7.54004 65.9599 9.86004 65.9599 14.98ZM60.2999 18.76V17.36H57.8599C56.0399 17.36 55.3899 18.02 55.3899 19C55.3899 19.98 56.1599 20.64 57.4999 20.64C58.7499 20.64 59.8499 20.05 60.2999 18.76Z" fill="white"/>
<path d="M69.5298 1.8501H75.1898V23.9401H69.5298V1.8501Z" fill="white"/>
<path d="M96.2098 7.80004V20.99C96.2098 27.09 92.7598 29.98 86.7398 29.98C83.6398 29.98 80.6998 29.27 78.7298 27.87L80.7798 23.91C82.1198 24.98 84.3198 25.64 86.2298 25.64C89.2698 25.64 90.5499 24.27 90.5499 21.74V21.2C89.4499 22.48 87.8098 23.11 85.7598 23.11C81.4698 23.11 77.8398 20.07 77.8398 15.31C77.8398 10.55 81.4698 7.54004 85.7598 7.54004C87.9898 7.54004 89.7198 8.25004 90.8198 9.77004V7.81004H96.2098V7.80004ZM90.6098 15.3C90.6098 13.34 89.1198 12.03 87.0998 12.03C85.0798 12.03 83.5598 13.34 83.5598 15.3C83.5598 17.26 85.0798 18.6 87.0998 18.6C89.1198 18.6 90.6098 17.26 90.6098 15.3Z" fill="white"/>
<path d="M98.8301 15.84C98.8301 10.99 102.67 7.53003 107.94 7.53003C113.21 7.53003 117.05 10.98 117.05 15.84C117.05 20.7 113.27 24.21 107.94 24.21C102.61 24.21 98.8301 20.73 98.8301 15.84ZM111.33 15.84C111.33 13.4 109.87 12.03 107.94 12.03C106.01 12.03 104.55 13.4 104.55 15.84C104.55 18.28 106.04 19.71 107.94 19.71C109.84 19.71 111.33 18.31 111.33 15.84Z" fill="white"/>
<path d="M118.57 15.86C118.57 13.84 120.06 12.53 121.96 12.53C123.86 12.53 125.35 13.84 125.35 15.86C125.35 17.88 123.89 19.22 121.96 19.22C120.03 19.22 118.57 17.82 118.57 15.86Z" fill="#B38E5E"/>
<path d="M145.27 7.80004V20.99C145.27 27.09 141.82 29.98 135.8 29.98C132.7 29.98 129.76 29.27 127.79 27.87L129.84 23.91C131.18 24.98 133.38 25.64 135.29 25.64C138.33 25.64 139.61 24.27 139.61 21.74V21.2C138.51 22.48 136.87 23.11 134.82 23.11C130.53 23.11 126.9 20.07 126.9 15.31C126.9 10.55 130.53 7.54004 134.82 7.54004C137.05 7.54004 138.78 8.25004 139.88 9.77004V7.81004H145.27V7.80004ZM139.68 15.3C139.68 13.34 138.19 12.03 136.17 12.03C134.15 12.03 132.63 13.34 132.63 15.3C132.63 17.26 134.15 18.6 136.17 18.6C138.19 18.6 139.68 17.26 139.68 15.3Z" fill="#B38E5E"/>
<path d="M147.9 15.84C147.9 10.99 151.74 7.53003 157.01 7.53003C162.28 7.53003 166.12 10.98 166.12 15.84C166.12 20.7 162.34 24.21 157.01 24.21C151.68 24.21 147.9 20.73 147.9 15.84ZM160.4 15.84C160.4 13.4 158.94 12.03 157.01 12.03C155.08 12.03 153.62 13.4 153.62 15.84C153.62 18.28 155.11 19.71 157.01 19.71C158.91 19.71 160.4 18.31 160.4 15.84Z" fill="#B38E5E"/>
<path d="M186.81 15.8401C186.81 20.9901 183.27 24.2101 178.89 24.2101C176.78 24.2101 175.2 23.6201 174.13 22.3301V23.9401H168.74V1.8501H174.4V9.2001C175.5 8.0701 177.02 7.5301 178.9 7.5301C183.28 7.5301 186.82 10.7201 186.82 15.8401H186.81ZM181.09 15.8401C181.09 13.4001 179.6 12.0301 177.7 12.0301C175.8 12.0301 174.31 13.4001 174.31 15.8401C174.31 18.2801 175.8 19.7101 177.7 19.7101C179.6 19.7101 181.09 18.3101 181.09 15.8401Z" fill="#B38E5E"/>
<path d="M188.33 15.86C188.33 13.84 189.82 12.53 191.72 12.53C193.62 12.53 195.11 13.84 195.11 15.86C195.11 17.88 193.65 19.22 191.72 19.22C189.79 19.22 188.33 17.82 188.33 15.86Z" fill="#B38E5E"/>
<path d="M226.31 14.71V23.94H220.65V15.63C220.65 13.31 219.7 12.33 218.21 12.33C216.57 12.33 215.38 13.43 215.38 15.93V23.94H209.72V15.63C209.72 13.31 208.8 12.33 207.28 12.33C205.61 12.33 204.42 13.43 204.42 15.93V23.94H198.76V7.80004H204.15V9.50004C205.37 8.19004 207.07 7.54004 208.97 7.54004C211.17 7.54004 213.05 8.34004 214.18 10.07C215.46 8.46004 217.46 7.54004 219.78 7.54004C223.53 7.54004 226.3 9.71004 226.3 14.71H226.31Z" fill="white"/>
<path d="M240.12 23.94L237.23 19.71L234.13 23.94H228L234.13 15.87L228.18 7.80005H234.55L237.41 11.88L240.39 7.80005H246.37L240.42 15.66L246.58 23.94H240.12Z" fill="white"/>
</svg>
