<svg width="886" height="96" viewBox="0 0 886 96" fill="none" xmlns="http://www.w3.org/2000/svg">
<g clip-path="url(#clip0_2090_403)">
<path d="M655.3 50.73V59.96H649.64V51.65C649.64 49.33 648.63 48.35 646.99 48.35C645.17 48.35 643.77 49.48 643.77 52.16V59.96H638.11V37.87H643.77V45.31C645.02 44.15 646.72 43.55 648.62 43.55C652.4 43.55 655.29 45.72 655.29 50.72L655.3 50.73Z" fill="#621333"/>
<path d="M658.22 39.03C658.22 37.33 659.59 36.02 661.67 36.02C663.75 36.02 665.12 37.24 665.12 38.94C665.12 40.73 663.75 42.04 661.67 42.04C659.59 42.04 658.22 40.73 658.22 39.03ZM658.84 43.82H664.5V59.96H658.84V43.82Z" fill="#621333"/>
<path d="M685.31 37.87V59.96H679.92V58.35C678.85 59.63 677.27 60.23 675.19 60.23C670.78 60.23 667.24 57.02 667.24 51.86C667.24 46.7 670.78 43.55 675.19 43.55C677.07 43.55 678.58 44.09 679.66 45.22V37.87H685.32H685.31ZM679.74 51.86C679.74 49.42 678.28 48.05 676.38 48.05C674.48 48.05 672.99 49.42 672.99 51.86C672.99 54.3 674.45 55.73 676.38 55.73C678.31 55.73 679.74 54.33 679.74 51.86Z" fill="#621333"/>
<path d="M704.07 51.0001V59.9601H698.8V57.8801C698 59.4301 696.39 60.2301 694.04 60.2301C690.17 60.2301 688.03 58.0601 688.03 55.2601C688.03 52.2801 690.2 50.4401 695.2 50.4401H698.41C698.32 48.8001 697.22 47.8801 694.99 47.8801C693.44 47.8801 691.72 48.4201 690.61 49.2801L688.7 45.4401C690.55 44.2201 693.28 43.5601 695.82 43.5601C701.06 43.5601 704.07 45.8801 704.07 51.0001ZM698.41 54.7801V53.3801H695.97C694.15 53.3801 693.5 54.0401 693.5 55.0201C693.5 56.0001 694.27 56.6601 695.61 56.6601C696.86 56.6601 697.96 56.0701 698.41 54.7801Z" fill="#621333"/>
<path d="M707.64 37.87H713.3V59.96H707.64V37.87Z" fill="#621333"/>
<path d="M734.32 43.8201V57.0101C734.32 63.1101 730.87 66.0001 724.85 66.0001C721.75 66.0001 718.81 65.2901 716.84 63.8901L718.89 59.9301C720.23 61.0001 722.43 61.6601 724.34 61.6601C727.38 61.6601 728.66 60.2901 728.66 57.7601V57.2201C727.56 58.5001 725.92 59.1301 723.87 59.1301C719.58 59.1301 715.95 56.0901 715.95 51.3301C715.95 46.5701 719.58 43.5601 723.87 43.5601C726.1 43.5601 727.83 44.2701 728.93 45.7901V43.8301H734.32V43.8201ZM728.72 51.3201C728.72 49.3601 727.23 48.0501 725.21 48.0501C723.19 48.0501 721.67 49.3601 721.67 51.3201C721.67 53.2801 723.19 54.6201 725.21 54.6201C727.23 54.6201 728.72 53.2801 728.72 51.3201Z" fill="#621333"/>
<path d="M736.94 51.86C736.94 47.01 740.78 43.55 746.05 43.55C751.32 43.55 755.16 47 755.16 51.86C755.16 56.72 751.38 60.23 746.05 60.23C740.72 60.23 736.94 56.75 736.94 51.86ZM749.44 51.86C749.44 49.42 747.98 48.05 746.05 48.05C744.12 48.05 742.66 49.42 742.66 51.86C742.66 54.3 744.15 55.73 746.05 55.73C747.95 55.73 749.44 54.33 749.44 51.86Z" fill="#621333"/>
<path d="M756.68 51.88C756.68 49.86 758.17 48.55 760.07 48.55C761.97 48.55 763.46 49.86 763.46 51.88C763.46 53.9 762 55.24 760.07 55.24C758.14 55.24 756.68 53.84 756.68 51.88Z" fill="#B38E5E"/>
<path d="M783.38 43.8201V57.0101C783.38 63.1101 779.93 66.0001 773.91 66.0001C770.81 66.0001 767.87 65.2901 765.9 63.8901L767.95 59.9301C769.29 61.0001 771.49 61.6601 773.4 61.6601C776.44 61.6601 777.72 60.2901 777.72 57.7601V57.2201C776.62 58.5001 774.98 59.1301 772.93 59.1301C768.64 59.1301 765.01 56.0901 765.01 51.3301C765.01 46.5701 768.64 43.5601 772.93 43.5601C775.16 43.5601 776.89 44.2701 777.99 45.7901V43.8301H783.38V43.8201ZM777.79 51.3201C777.79 49.3601 776.3 48.0501 774.28 48.0501C772.26 48.0501 770.74 49.3601 770.74 51.3201C770.74 53.2801 772.26 54.6201 774.28 54.6201C776.3 54.6201 777.79 53.2801 777.79 51.3201Z" fill="#B38E5E"/>
<path d="M786.01 51.86C786.01 47.01 789.85 43.55 795.12 43.55C800.39 43.55 804.23 47 804.23 51.86C804.23 56.72 800.45 60.23 795.12 60.23C789.79 60.23 786.01 56.75 786.01 51.86ZM798.51 51.86C798.51 49.42 797.05 48.05 795.12 48.05C793.19 48.05 791.73 49.42 791.73 51.86C791.73 54.3 793.22 55.73 795.12 55.73C797.02 55.73 798.51 54.33 798.51 51.86Z" fill="#B38E5E"/>
<path d="M824.92 51.86C824.92 57.01 821.38 60.23 817 60.23C814.89 60.23 813.31 59.64 812.24 58.35V59.96H806.85V37.87H812.51V45.22C813.61 44.09 815.13 43.55 817.01 43.55C821.39 43.55 824.93 46.74 824.93 51.86H824.92ZM819.2 51.86C819.2 49.42 817.71 48.05 815.81 48.05C813.91 48.05 812.42 49.42 812.42 51.86C812.42 54.3 813.91 55.73 815.81 55.73C817.71 55.73 819.2 54.33 819.2 51.86Z" fill="#B38E5E"/>
<path d="M826.44 51.88C826.44 49.86 827.93 48.55 829.83 48.55C831.73 48.55 833.22 49.86 833.22 51.88C833.22 53.9 831.76 55.24 829.83 55.24C827.9 55.24 826.44 53.84 826.44 51.88Z" fill="#B38E5E"/>
<path d="M864.42 50.7301V59.9601H858.76V51.6501C858.76 49.3301 857.81 48.3501 856.32 48.3501C854.68 48.3501 853.49 49.4501 853.49 51.9501V59.9601H847.83V51.6501C847.83 49.3301 846.91 48.3501 845.39 48.3501C843.72 48.3501 842.53 49.4501 842.53 51.9501V59.9601H836.87V43.8201H842.26V45.5201C843.48 44.2101 845.18 43.5601 847.08 43.5601C849.28 43.5601 851.16 44.3601 852.29 46.0901C853.57 44.4801 855.57 43.5601 857.89 43.5601C861.64 43.5601 864.41 45.7301 864.41 50.7301H864.42Z" fill="#621333"/>
<path d="M878.23 59.9601L875.34 55.7301L872.24 59.9601H866.11L872.24 51.8901L866.29 43.8201H872.66L875.52 47.9001L878.5 43.8201H884.48L878.53 51.6801L884.69 59.9601H878.23Z" fill="#621333"/>
</g>
<path d="M74.3638 0.566284V20.2386L63.1649 31.4375V10.4374L73.4203 0.164451C73.7697 -0.184968 74.3638 0.0596252 74.3638 0.548813V0.566284Z" fill="#9C2348"/>
<path d="M61.1906 12.4116V33.4117L49.9742 44.6281V23.6105L61.1906 12.4116Z" fill="#9C2348"/>
<path d="M46.0084 23.6105V44.6281L34.8095 33.4117V12.4116L46.0084 23.6105Z" fill="#621333"/>
<path d="M32.8179 10.4374V31.4375L21.619 20.2386V0.566269C21.619 0.0770813 22.213 -0.167512 22.5624 0.181907L32.8179 10.4374Z" fill="#621333"/>
<path d="M32.8179 64.5626V85.5802L22.5624 95.8357C22.213 96.1851 21.619 95.9405 21.619 95.4513V75.779L32.8179 64.5801V64.5626Z" fill="#9C2348"/>
<path d="M46.0084 51.3895V72.3896L34.8095 83.606V62.5884L46.0084 51.3895Z" fill="#9C2348"/>
<path d="M61.1906 62.5884V83.606L49.9742 72.3896V51.3895L61.1906 62.5884Z" fill="#621333"/>
<path d="M74.3638 75.7791V95.4514C74.3638 95.9406 73.7697 96.1852 73.4203 95.8358L63.1649 85.5803V64.5802L74.3638 75.7791Z" fill="#621333"/>
<path d="M95.4339 74.3813H75.7615L64.5626 63.1824H85.5802L95.8357 73.4378C96.1851 73.7873 95.9405 74.3813 95.4513 74.3813H95.4339Z" fill="#9C2348"/>
<path d="M83.5883 61.1906H62.5882L51.3718 49.9917H72.3894L83.5883 61.1906Z" fill="#9C2348"/>
<path d="M83.5883 34.827L72.3894 46.0259H51.3718L62.5882 34.827H83.5883Z" fill="#621333"/>
<path d="M95.8354 22.5798L85.58 32.8353H64.5798L75.7787 21.6364H95.4511C95.9402 21.6364 96.1848 22.2304 95.8354 22.5798Z" fill="#621333"/>
<path d="M31.42 32.8353H10.4199L0.164451 22.5798C-0.184969 22.2304 0.0596256 21.6364 0.548813 21.6364H20.2211L31.42 32.8353Z" fill="#9C2348"/>
<path d="M44.6107 46.0259H23.5931L12.3942 34.827H33.4118L44.6107 46.0259Z" fill="#9C2348"/>
<path d="M44.6107 49.9917L33.4118 61.1906H12.3942L23.5931 49.9917H44.6107Z" fill="#621333"/>
<path d="M31.42 63.1649L20.2211 74.3638H0.548813C0.0596256 74.3638 -0.184969 73.7698 0.164451 73.4204L10.4199 63.1649H31.4375H31.42Z" fill="#621333"/>
<path d="M130.843 48.2688H133.48V55.9037C131.562 57.5459 128.909 58.3845 126.221 58.3845C120.331 58.3845 116 54.1566 116 48.3737C116 42.5908 120.331 38.3628 126.272 38.3628C129.32 38.3628 131.888 39.3936 133.651 41.3853L131.956 43.1149C130.364 41.5425 128.566 40.8437 126.392 40.8437C121.958 40.8437 118.739 44.0059 118.739 48.3737C118.739 52.7414 121.941 55.9037 126.358 55.9037C127.967 55.9037 129.474 55.5368 130.843 54.6457V48.2688Z" fill="#9C2348"/>
<path d="M136.99 50.7672C136.99 46.347 140.191 43.2197 144.557 43.2197C148.922 43.2197 152.09 46.347 152.09 50.7672C152.09 55.1874 148.905 58.3496 144.557 58.3496C140.208 58.3496 136.99 55.1874 136.99 50.7672ZM149.419 50.7672C149.419 47.6049 147.33 45.5608 144.54 45.5608C141.749 45.5608 139.643 47.6049 139.643 50.7672C139.643 53.9294 141.749 55.991 144.54 55.991C147.33 55.991 149.419 53.9294 149.419 50.7672Z" fill="#9C2348"/>
<path d="M170.768 50.767C170.768 55.292 167.669 58.3494 163.423 58.3494C161.283 58.3494 159.417 57.5108 158.236 55.8336V58.1747H155.719V37.4192H158.356V45.5781C159.554 43.9883 161.369 43.2021 163.423 43.2021C167.669 43.2021 170.768 46.2246 170.768 50.7495V50.767ZM168.097 50.767C168.097 47.6048 165.992 45.5607 163.184 45.5607C160.376 45.5607 158.304 47.6048 158.304 50.767C158.304 53.9293 160.41 55.9908 163.184 55.9908C165.957 55.9908 168.097 53.9293 168.097 50.767Z" fill="#9C2348"/>
<path d="M173.935 38.7646C173.935 37.7862 174.706 37 175.716 37C176.726 37 177.496 37.7513 177.496 38.7122C177.496 39.7255 176.76 40.4942 175.716 40.4942C174.671 40.4942 173.935 39.7429 173.935 38.7646ZM174.398 43.3594H177.034V58.1748H174.398V43.3594Z" fill="#9C2348"/>
<path d="M195.113 51.6582H183.334C183.66 54.2614 185.714 55.991 188.59 55.991C190.285 55.991 191.706 55.397 192.785 54.209L194.24 55.9386C192.922 57.511 190.919 58.3496 188.505 58.3496C183.814 58.3496 180.698 55.1874 180.698 50.7672C180.698 46.347 183.797 43.2197 187.991 43.2197C192.186 43.2197 195.164 46.2946 195.164 50.8545C195.164 51.0817 195.13 51.4136 195.113 51.6582ZM183.334 49.7364H192.648C192.374 47.2555 190.542 45.491 187.991 45.491C185.44 45.491 183.608 47.2206 183.334 49.7364Z" fill="#9C2348"/>
<path d="M206.618 43.2197V45.8229C206.395 45.788 206.207 45.788 206.019 45.788C203.194 45.788 201.448 47.5525 201.448 50.8021V58.1924H198.811V43.377H201.328V45.8578C202.252 44.1282 204.067 43.2372 206.618 43.2372V43.2197Z" fill="#9C2348"/>
<path d="M223.636 49.649V58.1749H220.999V49.9461C220.999 47.0459 219.578 45.6133 217.079 45.6133C214.288 45.6133 212.473 47.3254 212.473 50.5401V58.1749H209.837V43.3595H212.353V45.5958C213.415 44.0933 215.281 43.2197 217.592 43.2197C221.119 43.2197 223.619 45.2813 223.619 49.649H223.636Z" fill="#9C2348"/>
<path d="M227.231 50.7672C227.231 46.347 230.432 43.2197 234.798 43.2197C239.164 43.2197 242.331 46.347 242.331 50.7672C242.331 55.1874 239.147 58.3496 234.798 58.3496C230.45 58.3496 227.231 55.1874 227.231 50.7672ZM239.677 50.7672C239.677 47.6049 237.589 45.5608 234.798 45.5608C232.008 45.5608 229.902 47.6049 229.902 50.7672C229.902 53.9294 232.008 55.991 234.798 55.991C237.589 55.991 239.677 53.9294 239.677 50.7672Z" fill="#9C2348"/>
<path d="M267.053 37.4192V58.1747H264.536V55.8336C263.355 57.5108 261.489 58.3494 259.349 58.3494C255.103 58.3494 252.004 55.3095 252.004 50.767C252.004 46.2246 255.103 43.2196 259.349 43.2196C261.403 43.2196 263.218 44.0057 264.416 45.5956V37.4367H267.053V37.4192ZM264.433 50.767C264.433 47.6048 262.328 45.5607 259.554 45.5607C256.781 45.5607 254.658 47.6048 254.658 50.767C254.658 53.9293 256.763 55.9908 259.554 55.9908C262.345 55.9908 264.433 53.9293 264.433 50.767Z" fill="#9C2348"/>
<path d="M285.098 51.6582H273.319C273.644 54.2614 275.699 55.991 278.575 55.991C280.27 55.991 281.708 55.397 282.769 54.209L284.225 55.9386C282.906 57.511 280.903 58.3496 278.489 58.3496C273.798 58.3496 270.682 55.1874 270.682 50.7672C270.682 46.347 273.781 43.2197 277.976 43.2197C282.17 43.2197 285.149 46.2946 285.149 50.8545C285.149 51.0817 285.115 51.4136 285.098 51.6582ZM273.319 49.7364H282.632C282.358 47.2555 280.527 45.491 277.976 45.491C275.425 45.491 273.593 47.2206 273.319 49.7364Z" fill="#9C2348"/>
<path d="M288.796 37.4192H291.432V58.1747H288.796V37.4192Z" fill="#9C2348"/>
<path d="M318.106 55.7465V58.1749H304.187V38.6074H317.729V41.0359H306.926V47.0459H316.548V49.422H306.926V55.7465H318.106Z" fill="#9C2348"/>
<path d="M320.126 56.6025L321.222 54.471C322.454 55.3621 324.423 56.0085 326.323 56.0085C328.755 56.0085 329.782 55.2572 329.782 53.9993C329.782 50.6624 320.605 53.5451 320.605 47.6574C320.605 45.0018 322.934 43.2197 326.666 43.2197C328.549 43.2197 330.689 43.7264 331.956 44.565L330.826 46.6965C329.508 45.8229 328.053 45.5259 326.632 45.5259C324.337 45.5259 323.207 46.3994 323.207 47.57C323.207 51.0642 332.418 48.2164 332.418 53.9819C332.418 56.6724 330.004 58.3671 326.135 58.3671C323.721 58.3671 321.341 57.6158 320.126 56.6374V56.6025Z" fill="#9C2348"/>
<path d="M343.855 57.3013C343.067 58.0002 341.852 58.3321 340.67 58.3321C337.743 58.3321 336.065 56.6898 336.065 53.6848V45.5434H333.6V43.342H336.065V40.0924H338.701V43.342H342.862V45.5434H338.701V53.5625C338.701 55.1524 339.523 56.0434 340.978 56.0434C341.749 56.0434 342.485 55.7988 343.033 55.3446L343.855 57.2664V57.3013Z" fill="#9C2348"/>
<path d="M358.527 49.2297V58.1749H356.027V56.2181C355.154 57.5634 353.528 58.3496 351.251 58.3496C347.964 58.3496 345.875 56.5676 345.875 53.9819C345.875 51.6058 347.382 49.649 351.713 49.649H355.873V49.1249C355.873 46.8537 354.589 45.5434 351.987 45.5434C350.258 45.5434 348.512 46.1549 347.382 47.1332L346.286 45.1241C347.792 43.9011 349.967 43.2197 352.295 43.2197C356.267 43.2197 358.51 45.1765 358.51 49.2297H358.527ZM355.908 53.6499V51.5883H351.85C349.248 51.5883 348.512 52.6191 348.512 53.877C348.512 55.3621 349.71 56.288 351.713 56.288C353.716 56.288 355.257 55.3621 355.908 53.6674V53.6499Z" fill="#9C2348"/>
<path d="M377.188 37.4192V58.1747H374.671V55.8336C373.49 57.5108 371.624 58.3494 369.484 58.3494C365.238 58.3494 362.139 55.3095 362.139 50.767C362.139 46.2246 365.238 43.2196 369.484 43.2196C371.538 43.2196 373.353 44.0057 374.552 45.5956V37.4367H377.188V37.4192ZM374.586 50.767C374.586 47.6048 372.48 45.5607 369.706 45.5607C366.933 45.5607 364.793 47.6048 364.793 50.767C364.793 53.9293 366.899 55.9908 369.706 55.9908C372.514 55.9908 374.586 53.9293 374.586 50.767Z" fill="#9C2348"/>
<path d="M380.818 50.7672C380.818 46.347 384.019 43.2197 388.385 43.2197C392.751 43.2197 395.918 46.347 395.918 50.7672C395.918 55.1874 392.733 58.3496 388.385 58.3496C384.036 58.3496 380.818 55.1874 380.818 50.7672ZM393.264 50.7672C393.264 47.6049 391.175 45.5608 388.385 45.5608C385.594 45.5608 383.471 47.6049 383.471 50.7672C383.471 53.9294 385.577 55.991 388.385 55.991C391.193 55.991 393.264 53.9294 393.264 50.7672Z" fill="#9C2348"/>
<path d="M420.64 37.4192V58.1747H418.123V55.8336C416.942 57.5108 415.075 58.3494 412.935 58.3494C408.69 58.3494 405.591 55.3095 405.591 50.767C405.591 46.2246 408.69 43.2196 412.935 43.2196C414.99 43.2196 416.805 44.0057 418.003 45.5956V37.4367H420.64V37.4192ZM418.037 50.767C418.037 47.6048 415.932 45.5607 413.158 45.5607C410.385 45.5607 408.244 47.6048 408.244 50.767C408.244 53.9293 410.35 55.9908 413.158 55.9908C415.966 55.9908 418.037 53.9293 418.037 50.767Z" fill="#9C2348"/>
<path d="M438.684 51.6582H426.906C427.231 54.2614 429.285 55.991 432.162 55.991C433.856 55.991 435.277 55.397 436.356 54.209L437.811 55.9386C436.493 57.511 434.49 58.3496 432.093 58.3496C427.402 58.3496 424.286 55.1874 424.286 50.7672C424.286 46.347 427.385 43.2197 431.579 43.2197C435.774 43.2197 438.753 46.2946 438.753 50.8545C438.753 51.0817 438.719 51.4136 438.701 51.6582H438.684ZM426.906 49.7364H436.219C435.945 47.2555 434.113 45.491 431.562 45.491C429.011 45.491 427.179 47.2206 426.906 49.7364Z" fill="#9C2348"/>
<path d="M466.625 38.6074V58.1749H463.886V49.4569H452.877V58.1749H450.138V38.6074H452.877V47.0284H463.886V38.6074H466.625Z" fill="#9C2348"/>
<path d="M471.521 38.7646C471.521 37.7862 472.292 37 473.302 37C474.312 37 475.082 37.7513 475.082 38.7122C475.082 39.7255 474.346 40.4942 473.302 40.4942C472.258 40.4942 471.521 39.7429 471.521 38.7646ZM471.984 43.3594H474.62V58.1748H471.984V43.3594Z" fill="#9C2348"/>
<path d="M493.332 37.4192V58.1747H490.816V55.8336C489.634 57.5108 487.768 58.3494 485.628 58.3494C481.382 58.3494 478.284 55.3095 478.284 50.767C478.284 46.2246 481.382 43.2196 485.628 43.2196C487.683 43.2196 489.498 44.0057 490.696 45.5956V37.4367H493.332V37.4192ZM490.73 50.767C490.73 47.6048 488.624 45.5607 485.851 45.5607C483.077 45.5607 480.937 47.6048 480.937 50.767C480.937 53.9293 483.043 55.9908 485.851 55.9908C488.659 55.9908 490.73 53.9293 490.73 50.767Z" fill="#9C2348"/>
<path d="M509.82 49.2297V58.1749H507.32V56.2181C506.447 57.5634 504.82 58.3496 502.543 58.3496C499.256 58.3496 497.168 56.5676 497.168 53.9819C497.168 51.6058 498.674 49.649 503.006 49.649H507.166V49.1249C507.166 46.8537 505.882 45.5434 503.28 45.5434C501.55 45.5434 499.804 46.1549 498.674 47.1332L497.578 45.1241C499.085 43.9011 501.259 43.2197 503.588 43.2197C507.56 43.2197 509.802 45.1765 509.802 49.2297H509.82ZM507.183 53.6499V51.5883H503.125C500.523 51.5883 499.787 52.6191 499.787 53.877C499.787 55.3621 500.985 56.288 502.989 56.288C504.992 56.288 506.532 55.3621 507.183 53.6674V53.6499Z" fill="#9C2348"/>
<path d="M514.699 37.4192H517.335V58.1747H514.699V37.4192Z" fill="#9C2348"/>
<path d="M536.236 43.3595V56.1657C536.236 61.3895 533.634 63.7656 528.703 63.7656C526.05 63.7656 523.362 63.0143 521.77 61.5643L523.036 59.5027C524.372 60.6732 526.495 61.4245 528.635 61.4245C532.059 61.4245 533.617 59.7997 533.617 56.4453V55.2747C532.35 56.8122 530.467 57.5634 528.378 57.5634C524.184 57.5634 520.999 54.6632 520.999 50.3828C520.999 46.1024 524.184 43.2197 528.378 43.2197C530.535 43.2197 532.521 44.0234 533.754 45.6482V43.3595H536.253H536.236ZM533.651 50.3654C533.651 47.4826 531.562 45.5608 528.669 45.5608C525.776 45.5608 523.653 47.4826 523.653 50.3654C523.653 53.2481 525.742 55.2048 528.669 55.2048C531.597 55.2048 533.651 53.2131 533.651 50.3654Z" fill="#9C2348"/>
<path d="M539.9 50.7672C539.9 46.347 543.101 43.2197 547.467 43.2197C551.833 43.2197 555 46.347 555 50.7672C555 55.1874 551.816 58.3496 547.467 58.3496C543.118 58.3496 539.9 55.1874 539.9 50.7672ZM552.329 50.7672C552.329 47.6049 550.241 45.5608 547.45 45.5608C544.659 45.5608 542.536 47.6049 542.536 50.7672C542.536 53.9294 544.642 55.991 547.45 55.991C550.258 55.991 552.329 53.9294 552.329 50.7672Z" fill="#9C2348"/>
<defs>
<clipPath id="clip0_2090_403">
<rect width="252" height="30" fill="white" transform="translate(634 36)"/>
</clipPath>
</defs>
</svg>
